# xmcd
#
# Track frame offsets: 
#        150
#        23117
#        38433
#        56974
#        74914
#        100291
#        119577
#        136390
#        152065
#        166357
#
# Disc length: 2420 seconds
#
# Revision: 0
# Processed by: cddbd v1.5.2PL0 Copyright (c) Steve Scherf et al.
# Submitted via: ExactAudioCopy v1.0b3
#
DISCID=8f09720a
DTITLE=Willie May - Nights Of Luna
DYEAR=2011
DGENRE=Blues
TTITLE0=Tell Me Baby
TTITLE1=My Big Rita
TTITLE2=Love That's True
TTITLE3=Plenty Of Problems
TTITLE4=By Degrees
TTITLE5=Todays The Day
TTITLE6=Go Back Home
TTITLE7=Frog Legs
TTITLE8=I Gotta Girl
TTITLE9=Plastic People
EXTD=
EXTT0=
EXTT1=
EXTT2=
EXTT3=
EXTT4=
EXTT5=
EXTT6=
EXTT7=
EXTT8=
EXTT9=
PLAYORDER=
